<svg xmlns="http://www.w3.org/2000/svg" width="1200" height="760" viewBox="0 0 1200 760">
<defs>
  <linearGradient id="wall" x1="0" x2="1" y1="0" y2="1"><stop stop-color="#f7f4ec"/><stop offset="1" stop-color="#dfd6c7"/></linearGradient>
  <linearGradient id="floor" x1="0" x2="0" y1="0" y2="1"><stop stop-color="#d9d0c0"/><stop offset="1" stop-color="#b9ad9c"/></linearGradient>
  <filter id="soft"><feGaussianBlur stdDeviation="12"/></filter>
</defs>
<rect width="1200" height="760" fill="url(#wall)"/>
<rect y="520" width="1200" height="240" fill="url(#floor)"/>
<path d="M0 520 H1200" stroke="#c9bea9" stroke-width="3"/>
<rect x="730" y="455" width="315" height="118" rx="34" fill="#f1eee7"/>
<rect x="705" y="505" width="370" height="100" rx="38" fill="#ffffff"/>
<rect x="805" y="432" width="98" height="92" rx="22" fill="#d8c8b8"/>
<rect x="250" y="502" width="240" height="58" rx="9" fill="#5f4735"/>
<rect x="280" y="560" width="16" height="78" fill="#2d2926"/>
<rect x="452" y="560" width="16" height="78" fill="#2d2926"/>
<ellipse cx="374" cy="638" rx="200" ry="28" fill="#8d8173" opacity=".25"/>
<rect x="332" y="455" width="88" height="48" rx="7" fill="#ede6d8"/>
<path d="M180 505 C210 435 250 400 290 363" stroke="#b28a62" stroke-width="7" fill="none"/>
<path d="M230 450 C195 410 178 385 160 330" stroke="#b28a62" stroke-width="5" fill="none"/>
<circle cx="160" cy="325" r="12" fill="#c9b99d"/>
<circle cx="292" cy="360" r="10" fill="#c9b99d"/>
<ellipse cx="620" cy="690" rx="520" ry="42" fill="#000" opacity=".08" filter="url(#soft)"/>
</svg>